<?xml version="1.0" standalone="no"?>
<!DOCTYPE svg PUBLIC "-//W3C//DTD SVG 20010904//EN"
 "http://www.w3.org/TR/2001/REC-SVG-20010904/DTD/svg10.dtd">
<svg version="1.0" xmlns="http://www.w3.org/2000/svg"
 width="300.000000pt" height="300.000000pt" viewBox="0 0 300.000000 300.000000"
 preserveAspectRatio="xMidYMid meet">
<metadata>
Created by potrace 1.14, written by Peter Selinger 2001-2017
</metadata>
<g transform="translate(0.000000,300.000000) scale(0.100000,-0.100000)"
fill="#000000" stroke="none">
<path d="M115 2983 c-45 -23 -86 -64 -101 -100 -12 -27 -14 -258 -14 -1383 0
-1310 1 -1352 19 -1388 23 -45 66 -87 104 -101 20 -8 449 -11 1378 -11 1309 0
1351 1 1387 19 45 23 87 66 101 104 8 20 11 449 11 1378 0 1309 -1 1351 -19
1387 -23 45 -66 87 -104 101 -20 8 -448 11 -1380 11 -1212 -1 -1355 -2 -1382
-17z m2725 -33 c45 -12 97 -65 110 -111 6 -21 10 -514 10 -1339 0 -825 -4
-1318 -10 -1339 -13 -46 -65 -99 -110 -111 -48 -13 -2513 -14 -2559 0 -46 13
-99 65 -111 110 -13 48 -13 2632 0 2680 12 42 65 97 106 110 41 12 2520 12
2564 0z"/>
<path d="M2052 1603 l3 -938 23 -51 c29 -64 84 -119 141 -139 62 -22 290 -21
355 1 44 15 48 19 43 43 -3 14 -13 70 -23 124 l-17 97 -47 -6 c-43 -6 -48 -4
-53 17 -4 13 -7 421 -7 907 l0 882 -210 0 -210 0 2 -937z m378 7 l0 -881 26
-26 c19 -19 32 -24 54 -20 l28 6 15 -82 c9 -45 13 -84 11 -86 -12 -12 -126
-19 -174 -11 -68 13 -117 50 -150 116 l-25 49 -3 908 -3 907 111 0 110 0 0
-880z"/>
<path d="M620 1440 l0 -950 635 0 635 0 0 140 0 140 -420 0 -420 0 0 285 0
285 340 0 340 0 0 140 0 140 -340 0 -340 0 0 245 0 245 405 0 405 0 0 140 0
140 -620 0 -620 0 0 -950z m1190 805 l0 -95 -405 0 -405 0 0 -285 0 -285 345
0 345 0 0 -95 0 -95 -345 0 -345 0 0 -335 0 -335 420 0 420 0 0 -90 0 -90
-530 0 -530 0 0 900 0 900 515 0 515 0 0 -95z"/>
</g>
</svg>
