<svg width="50" height="50" viewBox="0 0 50 50" fill="none" xmlns="http://www.w3.org/2000/svg">
<path d="M14.0612 11.7929L13.3541 11.0858L12.647 11.7929L9.70952 14.7304L9.00318 15.4367L9.70875 16.1438L18.5456 25L9.70875 33.8562L9.00318 34.5633L9.70952 35.2696L12.647 38.2071L13.3541 38.9142L14.0612 38.2071L26.5612 25.7071L27.2683 25L26.5612 24.2929L14.0612 11.7929Z" fill="#FF7B7B" stroke="white" stroke-width="2"/>
<path d="M27.7905 11.7929L27.0834 11.0858L26.3763 11.7929L23.4388 14.7304L22.7324 15.4367L23.438 16.1438L32.2749 25L23.438 33.8562L22.7324 34.5633L23.4388 35.2696L26.3763 38.2071L27.0834 38.9142L27.7905 38.2071L40.2905 25.7071L40.9976 25L40.2905 24.2929L27.7905 11.7929Z" fill="#FF7B7B" stroke="white" stroke-width="2"/>
</svg>
